<svg xmlns="http://www.w3.org/2000/svg" viewBox="0 0 1000 1000"
     width="512" height="512">
  <title>NJDOT Field Tools</title>
  <desc>Dark navy background, saffron gold suspension bridge — geometric, no text</desc>

  <!-- Background -->
  <rect width="1000" height="1000" fill="#1e2939"/>

  <!-- Left tower shaft  x=317.6  y=196  w=45.6  h=532 -->
  <rect x="318" y="196" width="46" height="532" fill="#E5B33B"/>
  <!-- Right tower shaft  x=636.8  y=196  w=45.6  h=532 -->
  <rect x="637" y="196" width="46" height="532" fill="#E5B33B"/>

  <!-- Tower caps  (cap_h=21, cap_ext=16 → total width = 46+32=78) -->
  <rect x="302" y="175" width="78" height="21" fill="#E5B33B"/>
  <rect x="621" y="175" width="78" height="21" fill="#E5B33B"/>

  <!-- Crossbeams at 25% (y=329) and 52% (y=473) of bridge_h
       width = tower_w + 2*xb_ext = 46 + 2*50 = 146, centred on tower -->
  <rect x="245" y="329" width="146" height="20" fill="#E5B33B"/>
  <rect x="245" y="473" width="146" height="20" fill="#E5B33B"/>
  <rect x="610" y="329" width="146" height="20" fill="#E5B33B"/>
  <rect x="610" y="473" width="146" height="20" fill="#E5B33B"/>

  <!-- Main span cable: M(363,207) Q(500,771) (637,207)
       Control point is corrected so visual midpoint lands at y≈489 (55% of bridge_h) -->
  <path d="M 363 207 Q 500 771 637 207"
        fill="none" stroke="#E5B33B" stroke-width="7" stroke-linecap="round"/>

  <!-- Anchor cables: straight lines from outer tower face to deck endpoints -->
  <line x1="318" y1="207" x2="150" y2="728" stroke="#E5B33B" stroke-width="7" stroke-linecap="round"/>
  <line x1="683" y1="207" x2="850" y2="728" stroke="#E5B33B" stroke-width="7" stroke-linecap="round"/>

  <!-- Hangers: 8 evenly spaced (t=1/9..8/9) along main cable, bottom at deck y=728 -->
  <line x1="394" y1="318" x2="394" y2="728" stroke="#B4821E" stroke-width="3.5" stroke-opacity="0.82"/>
  <line x1="424" y1="402" x2="424" y2="728" stroke="#B4821E" stroke-width="3.5" stroke-opacity="0.82"/>
  <line x1="454" y1="457" x2="454" y2="728" stroke="#B4821E" stroke-width="3.5" stroke-opacity="0.82"/>
  <line x1="485" y1="485" x2="485" y2="728" stroke="#B4821E" stroke-width="3.5" stroke-opacity="0.82"/>
  <line x1="515" y1="485" x2="515" y2="728" stroke="#B4821E" stroke-width="3.5" stroke-opacity="0.82"/>
  <line x1="546" y1="457" x2="546" y2="728" stroke="#B4821E" stroke-width="3.5" stroke-opacity="0.82"/>
  <line x1="576" y1="402" x2="576" y2="728" stroke="#B4821E" stroke-width="3.5" stroke-opacity="0.82"/>
  <line x1="606" y1="318" x2="606" y2="728" stroke="#B4821E" stroke-width="3.5" stroke-opacity="0.82"/>

  <!-- Road deck: anchor-to-anchor width at y=728 -->
  <line x1="150" y1="728" x2="850" y2="728" stroke="#E5B33B" stroke-width="10" stroke-linecap="round"/>

  <!-- Water reflections below deck -->
  <line x1="166" y1="750" x2="834" y2="750" stroke="#344F72" stroke-width="5" stroke-opacity="0.63"/>
  <line x1="177" y1="772" x2="823" y2="772" stroke="#344F72" stroke-width="3.5" stroke-opacity="0.35"/>
  <line x1="191" y1="794" x2="809" y2="794" stroke="#344F72" stroke-width="2.5" stroke-opacity="0.20"/>
</svg>